# xmcd
#
# Track frame offsets: 
#        150
#        15985
#        41789
#        61398
#        85962
#        105156
#        131092
#        148064
#        177752
#        197900
#
# Disc length: 3067 seconds
#
# Revision: 0
# Processed by: cddbd v1.5.2PL0 Copyright (c) Steve Scherf et al.
# Submitted via: ExactAudioCopy v0.99pb4
#
DISCID=840bf90a
DTITLE=Miguel M - A New Day
DYEAR=2005
DGENRE=Blues
TTITLE0=Bad Condition 
TTITLE1=My Little Home
TTITLE2=Young Man
TTITLE3=My Father
TTITLE4=We Will Rock You
TTITLE5=Spain
TTITLE6=I'm Ready
TTITLE7=Get Up, Stand Up
TTITLE8=Indiana Blues
TTITLE9=A New Day
EXTD=
EXTT0=
EXTT1=
EXTT2=
EXTT3=
EXTT4=
EXTT5=
EXTT6=
EXTT7=
EXTT8=
EXTT9=
PLAYORDER=
